<?xml version="1.0" encoding="UTF-8"?>
<svg width="1400px" height="110px" viewBox="0 0 1400 110" version="1.1" xmlns="http://www.w3.org/2000/svg" xmlns:xlink="http://www.w3.org/1999/xlink">
    <!-- Generator: sketchtool 52.2 (67145) - http://www.bohemiancoding.com/sketch -->
    <title>81FC1321-42F7-4ADF-A33C-687E8A95AA7B</title>
    <desc>Created with sketchtool.</desc>
    <defs>
        <linearGradient x1="0%" y1="50%" x2="97.9520412%" y2="50%" id="linearGradient-1">
            <stop stop-color="#FFE500" offset="0%"></stop>
            <stop stop-color="#F2DC0A" offset="3.57543732%"></stop>
            <stop stop-color="#E4D30F" offset="7.11370262%"></stop>
            <stop stop-color="#D5C912" offset="10.7612974%"></stop>
            <stop stop-color="#C6BF15" offset="14.664723%"></stop>
            <stop stop-color="#B5B417" offset="18.9704811%"></stop>
            <stop stop-color="#A4AA19" offset="23.8250729%"></stop>
            <stop stop-color="#929F1B" offset="29.375%"></stop>
            <stop stop-color="#7F951D" offset="35.7667638%"></stop>
            <stop stop-color="#6C8B1E" offset="43.1468659%"></stop>
            <stop stop-color="#58821F" offset="51.6618076%"></stop>
            <stop stop-color="#437A20" offset="61.4580904%"></stop>
            <stop stop-color="#2D7420" offset="72.6822157%"></stop>
            <stop stop-color="#176F21" offset="85.4806851%"></stop>
            <stop stop-color="#006E21" offset="100%"></stop>
        </linearGradient>
        <rect id="path-2" x="0" y="0" width="1400" height="110"></rect>
        <linearGradient x1="24.0227534%" y1="15.3165957%" x2="84.5410146%" y2="84.0688607%" id="linearGradient-4">
            <stop stop-color="#FFE500" offset="0%"></stop>
            <stop stop-color="#006E21" offset="100%"></stop>
        </linearGradient>
    </defs>
    <g id="FAQ" stroke="none" stroke-width="1" fill="none" fill-rule="evenodd">
        <g id="v3-FAQ" transform="translate(0.000000, -160.000000)">
            <g id="page-marker" transform="translate(0.000000, 160.000000)">
                <g id="page-marker-background">
                    <mask id="mask-3" fill="white">
                        <use xlink:href="#path-2"></use>
                    </mask>
                    <use id="Mask-🌈cubic-bezier(0.17,-0.46,-0.28,-1);lrgb;15" fill="url(#linearGradient-1)" xlink:href="#path-2"></use>
                    <path d="M1154.88359,564.007139 C1169.45384,564.007139 1181.59571,576.184514 1181.59571,590.797364 L1181.59571,675.551895 C1181.59571,690.164745 1169.45384,702.34212 1154.88359,702.34212 C1139.82767,702.34212 1128.17148,690.164745 1128.17148,675.551895 L1128.17148,590.797364 C1128.17148,576.184514 1140.31335,564.007139 1154.88359,564.007139 Z M1066.97645,548.420099 C1051.92053,548.420099 1040.26433,536.242724 1040.26433,521.142779 L1040.75,415.443163 C1040.75,400.830313 1052.89188,389.140033 1067.46212,389.140033 C1067.46212,389.140033 1067.46212,389.140033 1067.9478,389.140033 C1082.51804,389.140033 1094.65991,401.317408 1094.17424,416.417353 L1093.68856,522.116969 C1093.68856,536.729819 1081.54669,548.420099 1066.97645,548.420099 Z M1516.22567,424.210873 C1530.79592,424.210873 1542.93779,435.901153 1542.93779,451.001098 L1543.42347,572.287754 C1543.42347,586.900604 1531.76727,599.077979 1516.71135,599.077979 C1502.1411,599.077979 1489.99923,587.387699 1489.99923,572.287754 L1489.51356,451.001098 C1489.51356,436.388248 1501.16975,424.210873 1516.22567,424.210873 Z M1418.11936,232.782537 L1248.13316,131.953871 L1122.82905,205.505217 L1247.16181,279.543657 L1324.38411,235.705107 C1337.01166,228.398682 1353.5246,232.782537 1360.80973,245.934102 C1368.09485,258.598572 1363.72377,275.159802 1350.61055,282.466227 L1259.78936,334.098298 C1255.90396,336.533773 1251.53289,337.507963 1246.67614,337.507963 C1241.81939,337.507963 1237.44832,336.046678 1233.07724,333.611203 L1056.77727,228.885777 C1048.5208,224.014827 1043.66405,215.247117 1043.66405,205.992312 C1043.66405,196.737507 1048.5208,187.969797 1056.77727,183.098847 L1234.53427,78.3734212 C1242.79074,73.5024712 1253.47559,73.5024712 1261.73206,78.3734212 L1445.31715,186.995607 C1457.94469,194.302032 1462.31577,210.863262 1454.54497,223.527732 C1447.25985,236.192202 1430.7469,240.576057 1418.11936,232.782537 Z M1432.6896,283.440417 C1447.25985,283.440417 1459.40172,295.617792 1458.91604,310.717738 L1457.45902,414.468973 C1457.45902,423.723778 1452.60227,432.491488 1444.3458,437.362438 L1264.64611,544.523339 C1259.78936,546.471719 1255.41828,547.445909 1250.56154,547.445909 C1241.33371,547.445909 1232.59157,542.574959 1227.73482,534.294344 C1219.96402,521.629874 1224.33509,505.068644 1236.96264,497.762219 L1404.03479,398.394838 L1405.49181,309.743548 C1405.49181,295.130697 1417.63368,282.953322 1432.6896,283.440417 Z M1144.19875,-28.7874794 C1131.5712,-36.0939044 1127.20013,-52.6551345 1134.48525,-65.3196046 C1141.77037,-77.9840747 1158.28332,-82.3679297 1170.91086,-75.0615047 L1354.49595,29.6639209 C1367.1235,36.970346 1371.49457,53.5315761 1364.20945,66.1960461 C1358.86703,74.9637562 1350.12488,79.3476112 1340.89706,79.3476112 C1336.52598,79.3476112 1331.66923,78.3734212 1327.78384,75.9379462 L1144.19875,-28.7874794 Z M1293.7866,-49.7325645 C1281.15905,-57.0389896 1276.78798,-73.6002197 1284.0731,-86.2646897 C1291.35822,-98.9291598 1307.87117,-103.313015 1320.49871,-96.0065898 L1394.32129,-54.1164195 C1406.94883,-46.8099945 1411.31991,-30.2487644 1404.03479,-17.5842943 C1398.69236,-9.3036793 1389.95022,-4.43272927 1380.72239,-4.43272927 C1376.35132,-4.43272927 1371.49457,-5.40691928 1367.60917,-7.84239429 L1293.7866,-49.7325645 Z M1609.47524,152.411862 C1594.905,152.411862 1582.76313,140.234487 1582.76313,125.621636 L1582.76313,116.853926 L1574.99233,112.470071 L1527.88187,85.1927512 C1515.25432,77.8863262 1510.88325,61.3250961 1518.16837,48.660626 C1525.4535,35.996156 1541.96644,31.6123009 1554.59399,38.918726 L1601.70445,66.1960461 L1622.58846,78.3734212 C1630.84494,83.2443712 1636.18736,92.0120813 1636.18736,101.266886 L1636.18736,125.621636 C1636.18736,140.234487 1624.04549,152.411862 1609.47524,152.411862 Z M1609.47524,169.947282 C1624.04549,169.947282 1636.18736,182.124657 1636.18736,196.737507 L1636.18736,250.805052 C1636.18736,265.904997 1624.04549,277.595277 1609.47524,277.595277 C1594.905,277.595277 1582.76313,265.417902 1582.76313,250.805052 L1582.76313,196.737507 C1582.76313,182.124657 1594.905,169.947282 1609.47524,169.947282 Z M1609.47524,298.053267 C1624.04549,298.053267 1636.18736,310.230643 1636.18736,324.843493 L1636.18736,444.668863 C1636.18736,459.281713 1624.04549,471.459088 1609.47524,471.459088 C1594.905,471.459088 1582.76313,459.281713 1582.76313,444.668863 L1582.76313,324.843493 C1582.76313,310.230643 1594.905,298.053267 1609.47524,298.053267 Z M1443.37445,82.7572762 C1456.00199,90.0637013 1460.37307,106.624931 1453.08794,119.289401 C1448.2312,127.570016 1439.00337,132.440967 1429.77555,132.440967 C1425.40448,132.440967 1420.54773,131.466776 1416.66233,129.031301 L1395.77831,116.853926 C1383.15077,109.547501 1378.77969,92.9862713 1386.06482,80.3218012 C1393.34994,67.6573311 1409.86288,63.2734761 1422.49043,70.5799012 L1443.37445,82.7572762 Z M1502.62678,40.380011 C1497.77003,48.660626 1488.54221,53.5315761 1479.31439,53.5315761 C1474.94331,53.5315761 1470.08656,52.5573861 1466.20117,50.121911 L1430.7469,29.6639209 C1418.11936,22.3574959 1413.74828,5.79626579 1421.03341,-6.86820428 C1428.31853,-19.5326744 1444.83147,-23.9165294 1457.45902,-16.6101043 L1492.91328,3.84788578 C1505.54083,11.1543108 1509.9119,27.7155409 1502.62678,40.380011 Z M1529.82457,132.440967 C1538.08104,137.311917 1542.93779,146.079627 1543.42347,155.334432 L1543.42347,266.879187 C1543.42347,281.492037 1531.76727,293.182317 1516.71135,293.669412 C1502.1411,293.669412 1489.99923,281.979132 1489.99923,266.879187 L1489.99923,170.921472 L1482.22844,166.537617 C1469.60089,159.231192 1465.22982,142.669962 1472.51494,130.005491 C1479.80006,117.341021 1496.31301,112.957166 1508.94055,120.263591 L1529.82457,132.440967 Z M1516.71135,322.408018 C1531.28159,322.408018 1543.42347,334.098298 1543.42347,349.198243 L1543.42347,373.552993 C1543.42347,388.652938 1531.28159,400.343218 1516.71135,400.343218 C1502.1411,400.343218 1489.99923,388.652938 1489.99923,373.552993 L1489.99923,349.198243 C1489.99923,334.585393 1501.65543,322.408018 1516.71135,322.408018 Z M1050.94918,20.4091159 C1038.32163,13.1026908 1033.95056,-3.45853926 1041.23568,-16.1230093 C1048.5208,-28.7874794 1065.03375,-33.1713344 1077.66129,-25.8649094 L1084.46074,-21.9681494 C1097.08829,-14.6617243 1101.45936,1.89950577 1094.17424,14.5639758 C1089.31749,22.8445909 1080.57534,27.7155409 1071.34752,27.7155409 C1066.97645,27.7155409 1062.1197,26.7413509 1057.74862,24.3058759 L1050.94918,20.4091159 Z M1117.9723,59.8638111 C1105.34476,52.5573861 1100.97369,35.996156 1108.25881,23.3316859 C1115.54393,10.6672158 1132.05688,6.28336079 1144.68442,13.5897858 L1187.42381,38.918726 C1200.05135,46.225151 1204.42243,62.7863811 1197.1373,75.4508512 C1192.28056,83.7314662 1183.53841,88.6024163 1174.31059,88.6024163 C1169.93951,88.6024163 1165.08276,87.6282262 1160.71169,85.1927512 L1117.9723,59.8638111 Z M1426.37583,537.704009 C1440.94607,537.704009 1453.08794,549.881384 1453.08794,564.494234 L1453.08794,622.945634 C1453.08794,637.558484 1441.43175,649.735859 1426.37583,649.735859 C1411.80558,649.735859 1399.66371,637.558484 1399.66371,622.945634 L1399.66371,564.494234 C1399.66371,549.881384 1411.80558,537.704009 1426.37583,537.704009 Z M959.642307,73.0153762 C947.014761,65.7089511 942.643687,49.147721 949.92881,36.483251 C957.213932,23.8187809 973.726877,19.4349259 986.354423,26.7413509 L1070.86185,77.3992312 C1083.48939,84.7056562 1087.86046,101.266886 1080.57534,113.931356 C1075.71859,122.211971 1066.49077,127.082921 1057.26295,127.082921 C1052.89188,127.082921 1048.03513,126.108731 1044.14973,123.673256 L959.642307,73.0153762 Z M1337.98301,520.655684 C1352.55325,520.655684 1364.69512,532.345964 1364.69512,547.445909 L1364.69512,605.410214 C1364.69512,620.510159 1353.03893,632.200439 1337.98301,632.200439 C1323.41276,632.200439 1311.27089,620.510159 1311.27089,605.410214 L1311.27089,547.445909 C1311.27089,532.833059 1322.92709,520.655684 1337.98301,520.655684 Z M1218.507,382.320703 C1218.507,367.707853 1230.16319,355.530478 1245.21911,355.530478 C1259.78936,355.530478 1271.93123,367.220758 1271.93123,382.320703 L1271.93123,440.285008 C1271.93123,455.384953 1260.27503,467.075233 1245.21911,467.075233 C1230.64887,467.075233 1218.507,455.384953 1218.507,440.285008 L1218.507,382.320703 Z M870.763811,124.160351 C858.136265,116.853926 853.765191,100.292696 861.050314,87.6282262 C868.335437,74.9637562 884.848381,70.5799012 897.475927,77.8863262 L928.073442,95.4217463 C940.700988,102.728171 945.072061,119.289401 937.786939,131.953871 C932.444515,140.721582 923.702368,145.105437 914.474546,145.105437 C910.103473,145.105437 905.246724,144.131247 901.361326,141.695772 L870.763811,124.160351 Z M1034.43623,187.482702 C1029.09381,196.250412 1020.35166,200.634267 1011.12384,200.634267 C1006.75277,200.634267 1001.89602,199.660077 998.010619,197.224602 L971.298503,182.124657 C958.670957,174.818232 954.299883,158.257002 961.585006,145.592532 C968.870129,132.928062 985.383073,128.544206 998.010619,135.850632 L1024.72274,150.950577 C1037.35028,158.257002 1041.72135,174.818232 1034.43623,187.482702 Z M1245.21911,637.071389 C1259.78936,637.071389 1271.93123,649.248764 1271.93123,663.861614 L1271.93123,726.209775 C1271.93123,741.30972 1259.78936,753 1245.21911,753 C1230.16319,753 1218.507,740.822625 1218.507,726.209775 L1218.507,663.861614 C1218.507,649.248764 1230.64887,637.071389 1245.21911,637.071389 Z M979.0693,288.798462 C974.698227,288.798462 969.841478,287.824272 965.95608,285.388797 L936.329914,266.879187 C923.702368,259.572762 919.331295,243.011532 926.616417,230.347062 C933.90154,217.682592 950.414485,213.298737 963.04203,220.605162 L992.668196,239.114772 C1005.29574,246.421197 1009.66682,262.982427 1002.38169,275.646897 C997.039269,283.927512 988.297122,288.798462 979.0693,288.798462 Z M1028.60813,318.511258 C1015.98059,311.204833 1011.60951,294.643602 1018.89464,281.979132 C1026.17976,269.314662 1042.6927,264.930807 1055.32025,272.237232 L1168.48249,340.430533 C1181.11003,347.736958 1185.48111,364.298188 1178.19598,376.962658 C1172.85356,385.243273 1164.11141,390.114223 1154.88359,390.114223 C1150.51252,390.114223 1145.65577,389.140033 1141.77037,386.704558 L1028.60813,318.511258 Z M1154.88359,473.407468 C1169.45384,473.407468 1181.59571,485.584843 1181.59571,500.197694 L1181.59571,524.552444 C1181.59571,539.165294 1169.45384,551.342669 1154.88359,551.342669 C1139.82767,551.342669 1128.17148,539.165294 1128.17148,524.552444 L1128.17148,500.197694 C1128.17148,485.584843 1140.31335,473.407468 1154.88359,473.407468 Z M1067.46212,559.623284 C1082.03237,559.623284 1094.17424,571.800659 1094.17424,586.413509 L1094.17424,624.406919 C1094.17424,639.019769 1082.03237,651.197144 1067.46212,651.197144 C1052.4062,651.197144 1040.75,639.019769 1040.75,624.406919 L1040.75,586.413509 C1040.75,571.800659 1052.89188,559.623284 1067.46212,559.623284 Z M871.73516,333.124108 C859.107615,325.817683 854.736541,309.256452 862.021664,296.591982 C869.306786,283.927512 885.819731,279.543657 898.447277,286.850082 L952.842859,318.024163 C965.470405,325.330588 969.841478,341.891818 962.556356,354.556288 C957.699607,362.836903 948.95746,367.707853 939.729638,367.707853 C935.358565,367.707853 930.501816,366.733663 926.130743,364.298188 L871.73516,333.124108 Z M989.268472,443.207578 C998.010619,448.078528 1003.35304,456.846238 1002.86737,466.588138 L1002.86737,504.581549 C1002.86737,519.681494 990.725496,531.371774 976.155251,531.371774 C961.099331,531.371774 949.443135,519.194399 949.443135,504.581549 L949.443135,482.662273 L942.158012,478.765513 C941.672337,478.765513 941.672337,478.278418 941.186663,478.278418 L870.763811,440.285008 C858.136265,432.978583 853.279516,416.904448 860.078964,403.752883 C867.364087,391.088413 883.391357,386.217463 896.504577,393.036793 L975.669576,435.901153 C975.669576,435.901153 976.155251,436.388248 976.640926,436.388248 L989.268472,443.207578 Z M1002.86737,351.146623 C1017.43761,351.146623 1029.57948,363.323998 1029.57948,377.936848 L1029.57948,380.372323 C1029.57948,395.472268 1017.43761,407.162548 1002.86737,407.162548 C987.811447,407.162548 976.155251,394.985173 976.155251,380.372323 L976.155251,377.936848 C976.155251,363.323998 988.297122,351.146623 1002.86737,351.146623 Z M1426.37583,520.168589 C1411.62313,520.168589 1399.66371,508.174196 1399.66371,493.378364 C1399.66371,478.582531 1411.62313,466.588138 1426.37583,466.588138 C1441.12852,466.588138 1453.08794,478.582531 1453.08794,493.378364 C1453.08794,508.174196 1441.12852,520.168589 1426.37583,520.168589 Z M1609.47524,545.010434 C1594.72255,545.010434 1582.76313,533.016041 1582.76313,518.220209 C1582.76313,503.424376 1594.72255,491.429984 1609.47524,491.429984 C1624.22794,491.429984 1636.18736,503.424376 1636.18736,518.220209 C1636.18736,533.016041 1624.22794,545.010434 1609.47524,545.010434 Z M1245.21911,-80.4195497 C1230.46642,-80.4195497 1218.507,-92.4139421 1218.507,-107.209775 C1218.507,-122.005608 1230.46642,-134 1245.21911,-134 C1259.97181,-134 1271.93123,-122.005608 1271.93123,-107.209775 C1271.93123,-92.4139421 1259.97181,-80.4195497 1245.21911,-80.4195497 Z M1245.21911,619.048874 C1230.46642,619.048874 1218.507,607.054482 1218.507,592.258649 C1218.507,577.462816 1230.46642,565.468424 1245.21911,565.468424 C1259.97181,565.468424 1271.93123,577.462816 1271.93123,592.258649 C1271.93123,607.054482 1259.97181,619.048874 1245.21911,619.048874 Z M1154.88359,460.742998 C1140.1309,460.742998 1128.17148,448.748606 1128.17148,433.952773 C1128.17148,419.15694 1140.1309,407.162548 1154.88359,407.162548 C1169.63629,407.162548 1181.59571,419.15694 1181.59571,433.952773 C1181.59571,448.748606 1169.63629,460.742998 1154.88359,460.742998 Z M976.155251,598.590884 C961.402557,598.590884 949.443135,586.596492 949.443135,571.800659 C949.443135,557.004826 961.402557,545.010434 976.155251,545.010434 C990.907946,545.010434 1002.86737,557.004826 1002.86737,571.800659 C1002.86737,586.596492 990.907946,598.590884 976.155251,598.590884 Z M885.334056,234.730917 C870.581362,234.730917 858.62194,222.736525 858.62194,207.940692 C858.62194,193.144859 870.581362,181.150467 885.334056,181.150467 C900.08675,181.150467 912.046172,193.144859 912.046172,207.940692 C912.046172,222.736525 900.08675,234.730917 885.334056,234.730917 Z M1337.98301,702.34212 C1323.23031,702.34212 1311.27089,690.347727 1311.27089,675.551895 C1311.27089,660.756062 1323.23031,648.761669 1337.98301,648.761669 C1352.7357,648.761669 1364.69512,660.756062 1364.69512,675.551895 C1364.69512,690.347727 1352.7357,702.34212 1337.98301,702.34212 Z" id="ginar-logo" fill="url(#linearGradient-4)" fill-rule="nonzero" opacity="0.185044643" mask="url(#mask-3)"></path>
                </g>
            </g>
        </g>
    </g>
</svg>