<?xml version="1.0" encoding="UTF-8"?>
<svg width="22px" height="22px" viewBox="0 0 22 22" version="1.1" xmlns="http://www.w3.org/2000/svg" xmlns:xlink="http://www.w3.org/1999/xlink">
    <!-- Generator: Sketch 52.4 (67378) - http://www.bohemiancoding.com/sketch -->
    <title>information</title>
    <desc>Created with Sketch.</desc>
    <g id="Hi-Fi" stroke="none" stroke-width="1" fill="none" fill-rule="evenodd">
        <g id="Home/verify/info" transform="translate(-294.000000, -467.000000)" fill-rule="nonzero">
            <g id="tab-section" transform="translate(260.000000, 454.000000)">
                <g id="tab1">
                    <g id="text-button" transform="translate(34.000000, 13.000000)">
                        <g id="information">
                            <path d="M10.1004566,6.86849315 C10.1406393,6.94885845 10.1808219,7.02922374 10.2210046,7.08949772 C10.2611872,7.14977169 10.3214612,7.21004566 10.3616438,7.27031963 C10.4219178,7.33059361 10.4821918,7.39086758 10.5625571,7.45114155 C10.6228311,7.4913242 10.7031963,7.55159817 10.803653,7.5716895 C10.8840183,7.61187215 10.9643836,7.63196347 11.0648402,7.65205479 C11.1652968,7.67214612 11.2456621,7.67214612 11.3260274,7.67214612 C11.4063927,7.67214612 11.5068493,7.67214612 11.5872146,7.65205479 C11.6675799,7.63196347 11.7479452,7.61187215 11.8082192,7.5716895 L11.8283105,7.5716895 C11.9086758,7.53150685 11.9890411,7.4913242 12.0694064,7.43105023 C12.1296804,7.39086758 12.1899543,7.33059361 12.2502283,7.27031963 L12.2703196,7.25022831 C12.3305936,7.18995434 12.3707763,7.12968037 12.4109589,7.06940639 C12.4511416,7.00913242 12.4913242,6.94885845 12.5114155,6.86849315 C12.5114155,6.84840183 12.5114155,6.84840183 12.5315068,6.8283105 C12.5716895,6.74794521 12.5917808,6.64748858 12.6118721,6.56712329 C12.6319635,6.48675799 12.6319635,6.38630137 12.6319635,6.30593607 C12.6319635,6.22557078 12.6319635,6.12511416 12.6118721,6.04474886 C12.5917808,5.96438356 12.5716895,5.88401826 12.5315068,5.78356164 C12.4712329,5.64292237 12.3908676,5.52237443 12.290411,5.42191781 C12.2703196,5.40182648 12.2703196,5.40182648 12.2502283,5.38173516 C12.1899543,5.32146119 12.1296804,5.28127854 12.0493151,5.22100457 C11.9689498,5.18082192 11.9086758,5.14063927 11.8283105,5.10045662 C11.7479452,5.06027397 11.6675799,5.04018265 11.5872146,5.02009132 C11.486758,5 11.4063927,5 11.3260274,5 C11.2456621,5 11.1452055,5 11.0648402,5.02009132 C10.9844749,5.04018265 10.9041096,5.06027397 10.8237443,5.10045662 L10.803653,5.10045662 C10.7232877,5.14063927 10.6429224,5.18082192 10.5826484,5.22100457 C10.5022831,5.28127854 10.4420091,5.32146119 10.3817352,5.38173516 C10.3214612,5.44200913 10.2611872,5.50228311 10.2210046,5.56255708 C10.1808219,5.62283105 10.1406393,5.70319635 10.1004566,5.78356164 C10.060274,5.86392694 10.0401826,5.94429224 10.0200913,6.02465753 C10,6.12511416 10,6.20547945 10,6.28584475 C10,6.36621005 10,6.46666667 10.0200913,6.54703196 C10.0401826,6.70776256 10.0803653,6.78812785 10.1004566,6.86849315 Z" id="Shape" fill="#006E21"></path>
                            <path d="M12.6164384,14.4447489 L12.1543379,14.4447489 L12.1543379,9.52237443 C12.1543379,9.24109589 11.9333333,9 11.6319635,9 L9.52237443,9 C9.24109589,9 9,9.22100457 9,9.52237443 L9,10.6073059 C9,10.8885845 9.22100457,11.1296804 9.52237443,11.1296804 L9.94429224,11.1296804 L9.94429224,14.4648402 L9.52237443,14.4648402 C9.24109589,14.4648402 9,14.6858447 9,14.9872146 L9,16.0721461 C9,16.3534247 9.22100457,16.5945205 9.52237443,16.5945205 L12.6164384,16.5945205 C12.8977169,16.5945205 13.1388128,16.373516 13.1388128,16.0721461 L13.1388128,14.9872146 C13.1388128,14.6858447 12.8977169,14.4447489 12.6164384,14.4447489 Z" id="Shape" fill="#006E21"></path>
                            <path d="M10.9899543,0 C4.92237443,0 0,4.92237443 0,10.9899543 C0,17.0575342 4.92237443,21.9799087 10.9899543,21.9799087 C17.0575342,21.9799087 21.9799087,17.0575342 21.9799087,10.9899543 C21.9799087,4.92237443 17.0575342,0 10.9899543,0 Z M10.9899543,20.5333333 C5.7260274,20.5333333 1.44657534,16.2538813 1.44657534,10.9899543 C1.44657534,5.7260274 5.7260274,1.44657534 10.9899543,1.44657534 C16.2538813,1.44657534 20.5333333,5.7260274 20.5333333,10.9899543 C20.5333333,16.2538813 16.2538813,20.5333333 10.9899543,20.5333333 Z" id="Shape" fill="#FFFFFF"></path>
                        </g>
                    </g>
                </g>
            </g>
        </g>
    </g>
</svg>