<?xml version="1.0" encoding="UTF-8"?>
<svg width="28px" height="22px" viewBox="0 0 28 22" version="1.1" xmlns="http://www.w3.org/2000/svg" xmlns:xlink="http://www.w3.org/1999/xlink">
    <!-- Generator: Sketch 52.4 (67378) - http://www.bohemiancoding.com/sketch -->
    <title>code</title>
    <desc>Created with Sketch.</desc>
    <g id="Hi-Fi" stroke="none" stroke-width="1" fill="none" fill-rule="evenodd">
        <g id="Home/verify/info" transform="translate(-575.000000, -467.000000)" fill-rule="nonzero" stroke="#E6E6E6" stroke-width="0.4">
            <g id="tab-section" transform="translate(260.000000, 454.000000)">
                <g id="tab-2" transform="translate(250.000000, 0.000000)">
                    <g id="text-button" transform="translate(66.000000, 14.000000)">
                        <g id="code">
                            <path d="M16.1946692,0.280559796 L15.3144474,0.0335368957 C15.2011511,-0.00513994911 15.0895449,0.00702290076 14.981021,0.0699236641 C14.8721491,0.132875318 14.7986233,0.227379135 14.7608413,0.353282443 L9.46668451,19.1109415 C9.42890249,19.2368957 9.44073423,19.3556743 9.50222945,19.4669211 C9.56372467,19.5783715 9.65584321,19.6534351 9.7790325,19.692112 L10.6590057,19.9392366 C10.7725507,19.9782188 10.8837591,19.9660051 10.9925813,19.9030025 C11.1014532,19.8397455 11.1748298,19.7455471 11.2125621,19.6198473 L16.5068681,0.861882952 C16.5446004,0.735979644 16.5328681,0.617201018 16.4712734,0.505699746 C16.4097285,0.394249364 16.3177094,0.319185751 16.1946692,0.280559796 Z" id="Shape" fill="#006E21"></path>
                            <path d="M8.26069216,3.94223919 C8.26069216,3.81633588 8.21331549,3.70483461 8.11871128,3.60804071 L7.40895602,2.88152672 C7.31435182,2.78468193 7.20547992,2.73613232 7.08248948,2.73613232 C6.95949904,2.73613232 6.85057744,2.78473282 6.75602294,2.88152672 L0.14198088,9.65221374 C0.0472275335,9.74905852 0,9.86050891 0,9.98641221 C0,10.1123155 0.047376673,10.2237659 0.14198088,10.3205598 L6.75597323,17.0912468 C6.85052772,17.1882443 6.95925048,17.2364885 7.08243977,17.2364885 C7.20562906,17.2364885 7.31435182,17.1880916 7.40890631,17.0912468 L8.11866157,16.3651399 C8.21326577,16.2683461 8.26064245,16.1568448 8.26064245,16.0307888 C8.26064245,15.9050382 8.21326577,15.7935878 8.11866157,15.6967939 L2.54069216,9.98641221 L8.11871128,4.27643766 C8.21346463,4.17964377 8.26069216,4.06814249 8.26069216,3.94223919 Z" id="Shape" fill="#000000"></path>
                            <path d="M25.8316711,9.65206107 L19.2174799,2.88137405 C19.1229254,2.78458015 19.0140038,2.73597964 18.8912122,2.73597964 C18.7680229,2.73597964 18.659499,2.78458015 18.5645966,2.88137405 L17.8551396,3.60783715 C17.7605851,3.70468193 17.7134073,3.81597964 17.7134073,3.94203562 C17.7134073,4.0680916 17.7605354,4.1794402 17.8551396,4.2762341 L23.4332581,9.98636132 L17.8551396,15.6967939 C17.7605851,15.7935878 17.7134073,15.9050891 17.7134073,16.0307888 C17.7134073,16.1568957 17.7605354,16.2683461 17.8551396,16.3651399 L18.5645966,17.0912468 C18.659499,17.1882443 18.7680727,17.2364885 18.8912122,17.2364885 C19.0140535,17.2364885 19.1229254,17.1880916 19.2174799,17.0912468 L25.8316711,10.3206107 C25.9262753,10.2238168 25.9735526,10.1121628 25.9735526,9.98625954 C25.9735526,9.86030534 25.9262753,9.74885496 25.8316711,9.65206107 Z" id="Shape" fill="#000000"></path>
                        </g>
                    </g>
                </g>
            </g>
        </g>
    </g>
</svg>