<?xml version="1.0" encoding="UTF-8"?>
<svg width="26px" height="21px" viewBox="0 0 26 21" version="1.1" xmlns="http://www.w3.org/2000/svg" xmlns:xlink="http://www.w3.org/1999/xlink">
    <!-- Generator: Sketch 50.2 (55047) - http://www.bohemiancoding.com/sketch -->
    <title>Medium</title>
    <desc>Created with Sketch.</desc>
    <defs></defs>
    <g id="Blog" stroke="none" stroke-width="1" fill="none" fill-rule="evenodd">
        <g id="FAQ" transform="translate(-894.000000, -962.000000)" fill="#FFFFFF" fill-rule="nonzero">
            <g id="Group-6" transform="translate(0.000000, 867.000000)">
                <g id="Group-34" transform="translate(480.000000, 92.000000)">
                    <path d="M414.278759,3.01234432 C414.363796,3.01234432 414.424537,3 414.497426,3 C416.878459,3 419.247344,3 421.628378,3 C421.798452,3 421.87134,3.06172159 421.944229,3.2098534 C423.827189,7.41926575 425.710149,11.6163338 427.593109,15.8134018 C427.617406,15.8504348 427.629554,15.899812 427.665998,15.9615336 C427.702443,15.8874677 427.726739,15.8257461 427.751035,15.7763689 C429.403181,11.5793008 431.055326,7.38223279 432.707472,3.19750908 C432.756064,3.07406591 432.804657,3 432.962583,3 C435.246431,3.01234432 437.518131,3 439.80198,3 C439.86272,3 439.911313,3 439.984202,3.01234432 C440.020646,3.27157499 440.008498,3.48142839 439.789831,3.67893748 C439.133832,4.27146473 438.514278,4.90102493 437.882575,5.51824082 C437.748946,5.65402831 437.688205,5.81450444 437.688205,6.01201353 C437.688205,11.0114622 437.688205,16.0109109 437.688205,21.0103596 C437.688205,21.2078687 437.761094,21.3683448 437.894723,21.5041323 C438.550722,22.1583811 439.206721,22.81263 439.86272,23.4545345 C440.032794,23.6150106 439.935609,23.8125197 439.972053,23.9976845 C436.558429,23.9976845 433.169101,23.9976845 429.767625,23.9976845 C429.743328,23.7754867 429.719032,23.5656333 429.92555,23.3681243 C430.557253,22.775597 431.164659,22.1460368 431.796362,21.5411652 C431.978584,21.3683448 432.051473,21.1708357 432.051473,20.9239493 C432.051473,17.0354893 432.051473,13.1470292 432.051473,9.25856909 C432.051473,9.1968475 432.051473,9.13512591 432.051473,9.06106001 C432.039325,9.06106001 432.027177,9.04871569 432.015029,9.04871569 C431.954288,9.20919182 431.881399,9.36966795 431.820658,9.5424884 C429.986291,14.2827064 428.151923,19.0229244 426.317556,23.7631424 C426.256815,23.9236186 426.171778,23.9483072 426.013853,23.9853401 C425.552224,24.059406 425.357854,23.8495526 425.175632,23.4298458 C423.037561,18.6525949 420.887342,13.8876882 418.737123,9.12278159 C418.724975,9.08574864 418.700679,9.04871569 418.652086,9.02402705 C418.652086,9.08574864 418.652086,9.15981455 418.652086,9.22153614 C418.652086,12.4063701 418.652086,15.6035484 418.652086,18.7883824 C418.652086,18.9241699 418.639938,19.0599574 418.639938,19.1957449 C418.639938,19.5290414 418.749271,19.8253051 418.967937,20.0845357 C419.866899,21.1955243 420.778009,22.3065129 421.67697,23.4298458 C421.774155,23.553289 421.762007,23.7754867 421.798452,23.9729958 C419.174456,23.9729958 416.599052,23.9729958 414.011501,23.9729958 C413.987204,23.7261095 413.987204,23.5286004 414.157278,23.318747 C415.031943,22.26948 415.882313,21.2078687 416.74483,20.1586016 C417.024237,19.8253051 417.145718,19.4549755 417.084977,19.0105801 C417.072829,18.9365142 417.084977,18.8624483 417.084977,18.7883824 C417.084977,15.0233655 417.084977,11.2583486 417.097125,7.49333165 C417.097125,7.04893622 416.987792,6.70329532 416.696237,6.35765442 C415.930905,5.45651923 415.189869,4.51835108 414.436685,3.61721589 C414.230167,3.40736249 414.290908,3.22219772 414.278759,3.01234432 Z" id="Medium"></path>
                </g>
            </g>
        </g>
    </g>
</svg>