<?xml version="1.0" encoding="UTF-8"?>
<svg width="26px" height="25px" viewBox="0 0 26 25" version="1.1" xmlns="http://www.w3.org/2000/svg" xmlns:xlink="http://www.w3.org/1999/xlink">
    <!-- Generator: Sketch 50.2 (55047) - http://www.bohemiancoding.com/sketch -->
    <title>github-logo</title>
    <desc>Created with Sketch.</desc>
    <defs></defs>
    <g id="Blog" stroke="none" stroke-width="1" fill="none" fill-rule="evenodd">
        <g id="FAQ" transform="translate(-710.000000, -960.000000)" fill="#FFFFFF" fill-rule="nonzero">
            <g id="Group-6" transform="translate(0.000000, 867.000000)">
                <g id="Group-34" transform="translate(480.000000, 92.000000)">
                    <g id="github-logo" transform="translate(230.000000, 1.000000)">
                        <path d="M24.2310524,6.38537296 C23.0697585,4.4275641 21.4945376,2.8775641 19.5049749,1.73502331 C17.5151162,0.592424242 15.3427836,0.0212703963 12.9864374,0.0212703963 C10.6303872,0.0212703963 8.45734396,0.592599068 6.46789977,1.73502331 C4.47815945,2.87750583 2.90299772,4.4275641 1.74170387,6.38537296 C0.580587699,8.34312354 0,10.4810023 0,12.798951 C0,15.5833333 0.825603645,18.0871212 2.47722551,20.3109557 C4.1286697,22.534965 6.26209112,24.0738928 8.87731207,24.9279138 C9.18173121,24.9835082 9.40708428,24.9444056 9.5536082,24.8115967 C9.70019134,24.6786131 9.77339408,24.5120629 9.77339408,24.3126457 C9.77339408,24.2793706 9.77049203,23.9800117 9.7648656,23.4142191 C9.7590615,22.8484266 9.75633713,22.3548368 9.75633713,21.933683 L9.36740319,21.9998834 C9.11942597,22.0445804 8.80659681,22.0635198 8.42891572,22.0581585 C8.0514123,22.052972 7.65951708,22.0140443 7.2537631,21.9416667 C6.84783144,21.8699301 6.47026879,21.7035548 6.12077904,21.4428904 C5.77146697,21.1822261 5.52348975,20.8410256 5.37690661,20.4198135 L5.20781777,20.0369464 C5.09511162,19.7820513 4.91767198,19.4988928 4.67526196,19.1885198 C4.43285194,18.8778555 4.18771754,18.6672494 3.93974032,18.556352 L3.82134852,18.4729604 C3.74246014,18.4175408 3.6692574,18.3506993 3.60156264,18.2731352 C3.53392711,18.1955711 3.48328929,18.1179487 3.44947153,18.0402098 C3.41559453,17.9624126 3.44366743,17.8986014 3.53398633,17.8485431 C3.62430524,17.7984848 3.78753075,17.7741841 4.02437358,17.7741841 L4.3624328,17.8238928 C4.58790433,17.8683566 4.86679727,18.0011655 5.19946697,18.2231352 C5.531959,18.4449301 5.80528474,18.7332751 6.01950342,19.0880536 C6.27891116,19.5429487 6.59144419,19.8895688 6.95799089,20.1280886 C7.32424146,20.3666084 7.69351253,20.4856643 8.06544875,20.4856643 C8.43738497,20.4856643 8.75862415,20.4579254 9.02928474,20.4027389 C9.2996492,20.3472611 9.55331207,20.2638695 9.7901549,20.1530303 C9.8916082,19.4095571 10.167836,18.8384033 10.6186014,18.4391608 C9.97612301,18.3727273 9.39849658,18.272669 8.88542597,18.139627 C8.37265148,18.0064103 7.84276082,17.7902098 7.29610934,17.4904429 C6.74916173,17.1910839 6.29543508,16.8193473 5.93481093,16.3758741 C5.57412756,15.9321678 5.27811845,15.3496503 5.04719818,14.6288462 C4.81615945,13.9077506 4.70061048,13.0759324 4.70061048,12.1331585 C4.70061048,10.7907925 5.14598633,9.64848485 6.03656036,8.70559441 C5.61937585,7.69638695 5.65876082,6.56503497 6.15483371,5.31165501 C6.48175854,5.21171329 6.96657859,5.28671329 7.60905695,5.53618881 C8.25165376,5.78578089 8.72214123,5.99959207 9.02099317,6.1768648 C9.3198451,6.35407925 9.55929385,6.50425408 9.73969476,6.62604895 C10.7882825,6.33776224 11.8703918,6.19358974 12.9863189,6.19358974 C14.102246,6.19358974 15.1845923,6.33776224 16.2332392,6.62604895 L16.8757768,6.22692308 C17.3151708,5.96060606 17.8340456,5.71655012 18.4311572,5.49469697 C19.0286241,5.27296037 19.4854897,5.21188811 19.8012802,5.31182984 C20.308369,6.56526807 20.3535581,7.69656177 19.9362551,8.70576923 C20.8267699,9.64865967 21.2723235,10.7912587 21.2723235,12.1333333 C21.2723235,13.0761072 21.1563599,13.9105478 20.9256765,14.6371795 C20.694697,15.3639277 20.3961412,15.9458625 20.0298907,16.3842075 C19.6632255,16.8224942 19.2065968,17.191317 18.6599453,17.4906177 C18.1131754,17.7901515 17.5831071,18.006352 17.0703326,18.1395688 C16.5573212,18.2727855 15.9796948,18.3729021 15.3372164,18.4394522 C15.9231936,18.9384033 16.2162415,19.7259907 16.2162415,20.8018648 L16.2162415,24.3121795 C16.2162415,24.5115967 16.2867198,24.6780886 16.427795,24.8111305 C16.5686925,24.9439394 16.7912027,24.983042 17.0956219,24.9273893 C19.7111982,24.0734848 21.8446196,22.5344988 23.4960046,20.3104895 C25.1472118,18.086655 25.9731116,15.5828671 25.9731116,12.7984848 C25.9725194,10.4808275 25.3916355,8.34312354 24.2310524,6.38537296 Z" id="Shape"></path>
                    </g>
                </g>
            </g>
        </g>
    </g>
</svg>