<?xml version="1.0" encoding="UTF-8"?>
<svg width="837px" height="400px" viewBox="0 0 837 400" version="1.1" xmlns="http://www.w3.org/2000/svg" xmlns:xlink="http://www.w3.org/1999/xlink">
    <!-- Generator: Sketch 49.3 (51167) - http://www.bohemiancoding.com/sketch -->
    <title>logo web 02</title>
    <desc>Created with Sketch.</desc>
    <defs>
        <linearGradient x1="24.0227534%" y1="15.3165957%" x2="84.5410146%" y2="84.0688607%" id="linearGradient-1">
            <stop stop-color="#FFE500" offset="0%"></stop>
            <stop stop-color="#006E21" offset="100%"></stop>
        </linearGradient>
    </defs>
    <g id="export" stroke="none" stroke-width="1" fill="none" fill-rule="evenodd">
        <g id="logo-web-02">
            <path d="M471.186813,201.67033 L487.406593,201.67033 L487.406593,238.461538 C482.659317,242.241777 477.120911,245.142847 470.791209,247.164835 C464.461507,249.186823 457.956077,250.197802 451.274725,250.197802 C441.868085,250.197802 433.384653,248.153867 425.824176,244.065934 C418.263698,239.978002 412.329692,234.329706 408.021978,227.120879 C403.714264,219.912052 401.56044,211.780265 401.56044,202.725275 C401.56044,193.670284 403.714264,185.538498 408.021978,178.32967 C412.329692,171.120843 418.285676,165.472548 425.89011,161.384615 C433.494544,157.296683 442.043909,155.252747 451.538462,155.252747 C459.274764,155.252747 466.307661,156.52746 472.637363,159.076923 C478.967065,161.626386 484.285693,165.362613 488.593407,170.285714 L477.78022,180.835165 C470.747218,173.802163 462.263786,170.285714 452.32967,170.285714 C445.824143,170.285714 440.043981,171.648338 434.989011,174.373626 C429.934041,177.098915 425.978036,180.923052 423.120879,185.846154 C420.263722,190.769255 418.835165,196.395573 418.835165,202.725275 C418.835165,208.879152 420.263722,214.417558 423.120879,219.340659 C425.978036,224.263761 429.934041,228.131854 434.989011,230.945055 C440.043981,233.758256 445.780188,235.164835 452.197802,235.164835 C459.406629,235.164835 465.736236,233.582433 471.186813,230.417582 L471.186813,201.67033 Z M509.956044,156.571429 L527.098901,156.571429 L527.098901,248.879121 L509.956044,248.879121 L509.956044,156.571429 Z M634.043956,156.571429 L634.043956,248.879121 L619.934066,248.879121 L569.032967,186.373626 L569.032967,248.879121 L552.021978,248.879121 L552.021978,156.571429 L566.131868,156.571429 L617.032967,219.076923 L617.032967,156.571429 L634.043956,156.571429 Z M718.703297,227.516484 L672.549451,227.516484 L663.450549,248.879121 L645.78022,248.879121 L687.318681,156.571429 L704.197802,156.571429 L745.868132,248.879121 L727.934066,248.879121 L718.703297,227.516484 Z M713.032967,214.065934 L695.626374,173.714286 L678.351648,214.065934 L713.032967,214.065934 Z M818,248.879121 L799.142857,221.846154 C798.351644,221.934066 797.164843,221.978022 795.582418,221.978022 L774.747253,221.978022 L774.747253,248.879121 L757.604396,248.879121 L757.604396,156.571429 L795.582418,156.571429 C803.582458,156.571429 810.549421,157.890097 816.483516,160.527473 C822.417612,163.164848 826.967017,166.94503 830.131868,171.868132 C833.296719,176.791233 834.879121,182.637329 834.879121,189.406593 C834.879121,196.351683 833.18683,202.329645 829.802198,207.340659 C826.417565,212.351673 821.560471,216.0879 815.230769,218.549451 L836.461538,248.879121 L818,248.879121 Z M811.802198,175.824176 C807.934047,172.659325 802.263774,171.076923 794.791209,171.076923 L774.747253,171.076923 L774.747253,207.868132 L794.791209,207.868132 C802.263774,207.868132 807.934047,206.263752 811.802198,203.054945 C815.670349,199.846138 817.604396,195.296733 817.604396,189.406593 C817.604396,183.516454 815.670349,178.989027 811.802198,175.824176 Z" id="GINAR-Copy-5" fill="#000000"></path>
            <path d="M134.435284,314.772103 C141.010857,314.772103 146.4905,320.263591 146.4905,326.853377 L146.4905,365.074135 C146.4905,371.663921 141.010857,377.155409 134.435284,377.155409 C127.640526,377.155409 122.380069,371.663921 122.380069,365.074135 L122.380069,326.853377 C122.380069,320.263591 127.859712,314.772103 134.435284,314.772103 Z M94.7626657,307.742998 C87.9679077,307.742998 82.70745,302.25151 82.70745,295.442065 L82.9266358,247.775947 C82.9266358,241.186161 88.4062792,235.914333 94.9818514,235.914333 C94.9818514,235.914333 94.9818514,235.914333 95.2010371,235.914333 C101.776609,235.914333 107.256253,241.405821 107.037067,248.215266 L106.817881,295.881384 C106.817881,302.47117 101.338238,307.742998 94.7626657,307.742998 Z M297.509474,251.729819 C304.085046,251.729819 309.56469,257.001647 309.56469,263.811093 L309.783876,318.506315 C309.783876,325.096101 304.523418,330.587589 297.72866,330.587589 C291.153088,330.587589 285.673444,325.315761 285.673444,318.506315 L285.454258,263.811093 C285.454258,257.221307 290.714716,251.729819 297.509474,251.729819 Z M253.233955,165.403624 L176.518946,119.934102 L119.969026,153.102691 L176.080575,186.490939 L210.931107,166.721582 C216.629936,163.426689 224.082252,165.403624 227.370038,171.334432 C230.657824,177.045579 228.685152,184.514003 222.767137,187.808896 L181.779404,211.092806 C180.025918,212.191104 178.053246,212.630423 175.861389,212.630423 C173.669532,212.630423 171.69686,211.971444 169.724188,210.873147 L90.1597651,163.646348 C86.4336076,161.449753 84.2417502,157.495881 84.2417502,153.32235 C84.2417502,149.148819 86.4336076,145.194948 90.1597651,142.998353 L170.381746,95.7715541 C174.107903,93.5749588 178.929989,93.5749588 182.656147,95.7715541 L265.508356,144.755629 C271.207185,148.050522 273.179857,155.518946 269.672885,161.230093 C266.385099,166.941241 258.932784,168.918177 253.233955,165.403624 Z M259.809527,188.248215 C266.385099,188.248215 271.864743,193.739703 271.645557,200.549149 L270.988,247.336628 C270.988,251.510159 268.796142,255.464031 265.069985,257.660626 L183.971261,305.985722 C181.779404,306.86436 179.806732,307.303679 177.614875,307.303679 C173.450346,307.303679 169.505003,305.107084 167.313145,301.372872 C163.806173,295.661724 165.778845,288.1933 171.477674,284.898407 L246.877568,240.087864 L247.535126,200.10983 C247.535126,193.520044 253.014769,188.028556 259.809527,188.248215 Z M129.613198,47.446458 C123.914369,44.1515651 121.941697,36.6831411 125.229483,30.9719934 C128.517269,25.2608457 135.969585,23.2839099 141.668414,26.5788029 L224.520623,73.8056013 C230.219452,77.1004942 232.192124,84.5689182 228.904338,90.2800659 C226.493295,94.2339374 222.547951,96.2108731 218.383422,96.2108731 C216.410751,96.2108731 214.218893,95.7715541 212.465407,94.6732565 L129.613198,47.446458 Z M197.122406,38.0010983 C191.423577,34.7062054 189.450905,27.2377814 192.738691,21.5266337 C196.026477,15.815486 203.478792,13.8385502 209.177621,17.1334432 L242.493854,36.0241625 C248.192683,39.3190555 250.165355,46.7874794 246.877568,52.4986271 C244.466525,56.2328391 240.521182,58.4294344 236.356653,58.4294344 C234.383981,58.4294344 232.192124,57.9901153 230.438638,56.8918177 L197.122406,38.0010983 Z M339.593136,129.159802 C333.017564,129.159802 327.53792,123.668314 327.53792,117.078528 L327.53792,113.124657 L324.030949,111.147721 L302.769932,98.8467875 C297.071103,95.5518946 295.098431,88.0834706 298.386217,82.3723229 C301.674003,76.6611752 309.126318,74.6842394 314.825148,77.9791323 L336.086164,90.2800659 L345.511151,95.7715541 C349.237309,97.9681494 351.648352,101.922021 351.648352,106.095552 L351.648352,117.078528 C351.648352,123.668314 346.168708,129.159802 339.593136,129.159802 Z M339.593136,137.067545 C346.168708,137.067545 351.648352,142.559033 351.648352,149.148819 L351.648352,173.531027 C351.648352,180.340472 346.168708,185.612301 339.593136,185.612301 C333.017564,185.612301 327.53792,180.120813 327.53792,173.531027 L327.53792,149.148819 C327.53792,142.559033 333.017564,137.067545 339.593136,137.067545 Z M339.593136,194.838001 C346.168708,194.838001 351.648352,200.329489 351.648352,206.919275 L351.648352,260.955519 C351.648352,267.545305 346.168708,273.036793 339.593136,273.036793 C333.017564,273.036793 327.53792,267.545305 327.53792,260.955519 L327.53792,206.919275 C327.53792,200.329489 333.017564,194.838001 339.593136,194.838001 Z M264.631613,97.7484898 C270.330443,101.043383 272.303114,108.511807 269.015328,114.222954 C266.823471,117.957166 262.658942,120.153762 258.494413,120.153762 C256.521741,120.153762 254.329884,119.714443 252.576398,118.616145 L243.151411,113.124657 C237.452582,109.829764 235.47991,102.36134 238.767696,96.6501922 C242.055482,90.9390445 249.507797,88.9621087 255.206627,92.2570016 L264.631613,97.7484898 Z M291.372273,78.6381109 C289.180416,82.3723229 285.015887,84.5689182 280.851358,84.5689182 C278.878686,84.5689182 276.686829,84.1295991 274.933343,83.0313015 L258.932784,73.8056013 C253.233955,70.5107084 251.261283,63.0422845 254.549069,57.3311367 C257.836855,51.619989 265.289171,49.6430533 270.988,52.9379462 L286.988559,62.1636463 C292.687388,65.4585393 294.66006,72.9269632 291.372273,78.6381109 Z M303.646675,120.153762 C307.372832,122.350357 309.56469,126.304228 309.783876,130.477759 L309.783876,180.779791 C309.783876,187.369577 304.523418,192.641406 297.72866,192.861065 C291.153088,192.861065 285.673444,187.589237 285.673444,180.779791 L285.673444,137.506864 L282.166472,135.529929 C276.467643,132.235036 274.494972,124.766612 277.782758,119.055464 C281.070544,113.344316 288.522859,111.367381 294.221688,114.662273 L303.646675,120.153762 Z M297.72866,205.820977 C304.304232,205.820977 309.783876,211.092806 309.783876,217.902252 L309.783876,228.885228 C309.783876,235.694673 304.304232,240.966502 297.72866,240.966502 C291.153088,240.966502 285.673444,235.694673 285.673444,228.885228 L285.673444,217.902252 C285.673444,211.312466 290.933902,205.820977 297.72866,205.820977 Z M87.5295363,69.6320703 C81.8307071,66.3371774 79.8580354,58.8687534 83.1458215,53.1576057 C86.4336076,47.446458 93.8859227,45.4695222 99.5847519,48.7644152 L102.653352,50.5216914 C108.352181,53.8165843 110.324853,61.2850082 107.037067,66.996156 C104.84521,70.7303679 100.899866,72.9269632 96.7353373,72.9269632 C94.7626657,72.9269632 92.5708083,72.4876442 90.5981366,71.3893465 L87.5295363,69.6320703 Z M117.777168,87.424492 C112.078339,84.1295991 110.105667,76.6611752 113.393453,70.9500275 C116.68124,65.2388797 124.133555,63.261944 129.832384,66.5568369 L149.120729,77.9791323 C154.819558,81.2740253 156.79223,88.7424492 153.504444,94.4535969 C151.312586,98.1878089 147.367243,100.384404 143.202714,100.384404 C141.230042,100.384404 139.038185,99.9450851 137.065513,98.8467875 L117.777168,87.424492 Z M256.960112,302.910489 C263.535685,302.910489 269.015328,308.401977 269.015328,314.991763 L269.015328,341.350906 C269.015328,347.940692 263.75487,353.43218 256.960112,353.43218 C250.38454,353.43218 244.904897,347.940692 244.904897,341.350906 L244.904897,314.991763 C244.904897,308.401977 250.38454,302.910489 256.960112,302.910489 Z M46.3226174,93.3552993 C40.6237881,90.0604064 38.6511165,82.5919824 41.9389026,76.8808347 C45.2266887,71.169687 52.6790038,69.1927512 58.377833,72.4876442 L96.5161516,95.332235 C102.214981,98.627128 104.187652,106.095552 100.899866,111.8067 C98.708009,115.540912 94.5434799,117.737507 90.3789509,117.737507 C88.4062792,117.737507 86.2144218,117.298188 84.4609359,116.19989 L46.3226174,93.3552993 Z M217.068308,295.222405 C223.64388,295.222405 229.123524,300.494234 229.123524,307.303679 L229.123524,333.443163 C229.123524,340.252608 223.863066,345.524437 217.068308,345.524437 C210.492736,345.524437 205.013092,340.252608 205.013092,333.443163 L205.013092,307.303679 C205.013092,300.713893 210.27355,295.222405 217.068308,295.222405 Z M163.148616,232.839099 C163.148616,226.249314 168.409074,220.757825 175.203832,220.757825 C181.779404,220.757825 187.259047,226.029654 187.259047,232.839099 L187.259047,258.978583 C187.259047,265.788029 181.99859,271.059857 175.203832,271.059857 C168.62826,271.059857 163.148616,265.788029 163.148616,258.978583 L163.148616,232.839099 Z M6.21162714,116.41955 C0.512797927,113.124657 -1.45987372,105.656233 1.82791236,99.9450851 C5.11569844,94.2339374 12.5680136,92.2570016 18.2668428,95.5518946 L32.0755443,103.459638 C37.7743735,106.75453 39.7470452,114.222954 36.4592591,119.934102 C34.048216,123.887974 30.1028727,125.864909 25.9383436,125.864909 C23.965672,125.864909 21.7738146,125.42559 20.0203287,124.327293 L6.21162714,116.41955 Z M80.0772211,144.975288 C77.666178,148.92916 73.7208347,150.906096 69.5563057,150.906096 C67.583634,150.906096 65.3917766,150.466776 63.6382907,149.368479 L51.5830751,142.559033 C45.8842459,139.264141 43.9115742,131.795717 47.1993603,126.084569 C50.4871464,120.373421 57.9394615,118.396485 63.6382907,121.691378 L75.6935064,128.500824 C81.3923356,131.795717 83.3650072,139.264141 80.0772211,144.975288 Z M175.203832,347.721032 C181.779404,347.721032 187.259047,353.212521 187.259047,359.802306 L187.259047,387.918726 C187.259047,394.728171 181.779404,400 175.203832,400 C168.409074,400 163.148616,394.508512 163.148616,387.918726 L163.148616,359.802306 C163.148616,353.212521 168.62826,347.721032 175.203832,347.721032 Z M55.0900469,190.66447 C53.1173753,190.66447 50.9255179,190.225151 49.172032,189.126853 L35.8017019,180.779791 C30.1028727,177.484898 28.130201,170.016474 31.4179871,164.305327 C34.7057732,158.594179 42.1580883,156.617243 47.8569175,159.912136 L61.2272476,168.259198 C66.9260768,171.554091 68.8987485,179.022515 65.6109624,184.733663 C63.1999193,188.467875 59.254576,190.66447 55.0900469,190.66447 Z M77.4469923,204.063701 C71.7481631,200.768808 69.7754914,193.300384 73.0632775,187.589237 C76.3510636,181.878089 83.8033787,179.901153 89.5022079,183.196046 L140.572485,213.94838 C146.271314,217.243273 148.243986,224.711697 144.9562,230.422845 C142.545157,234.157057 138.599813,236.353652 134.435284,236.353652 C132.462613,236.353652 130.270755,235.914333 128.517269,234.816035 L77.4469923,204.063701 Z M134.435284,273.915431 C141.010857,273.915431 146.4905,279.406919 146.4905,285.996705 L146.4905,296.979681 C146.4905,303.569467 141.010857,309.060956 134.435284,309.060956 C127.640526,309.060956 122.380069,303.569467 122.380069,296.979681 L122.380069,285.996705 C122.380069,279.406919 127.859712,273.915431 134.435284,273.915431 Z M94.9818514,312.795167 C101.557424,312.795167 107.037067,318.286656 107.037067,324.876442 L107.037067,342.009885 C107.037067,348.599671 101.557424,354.091159 94.9818514,354.091159 C88.1870935,354.091159 82.9266358,348.599671 82.9266358,342.009885 L82.9266358,324.876442 C82.9266358,318.286656 88.4062792,312.795167 94.9818514,312.795167 Z M6.64999862,210.653487 C0.951169405,207.358594 -1.02150225,199.89017 2.26628384,194.179023 C5.55406992,188.467875 13.006385,186.490939 18.7052143,189.785832 L43.254017,203.844042 C48.9528462,207.138935 50.9255179,214.607359 47.6377318,220.318506 C45.4458744,224.052718 41.5005311,226.249314 37.3360021,226.249314 C35.3633304,226.249314 33.171473,225.809995 31.1988014,224.711697 L6.64999862,210.653487 Z M59.6929474,260.29654 C63.6382907,262.493136 66.0493339,266.447007 65.8301481,270.840198 L65.8301481,287.973641 C65.8301481,294.783086 60.3505046,300.054915 53.7749325,300.054915 C46.9801746,300.054915 41.7197168,294.563427 41.7197168,287.973641 L41.7197168,278.088962 L38.4319308,276.331686 C38.212745,276.331686 38.212745,276.112026 37.9935593,276.112026 L6.21162714,258.978583 C0.512797927,255.68369 -1.67905946,248.434926 1.38954088,242.504119 C4.67732697,236.792971 11.9104564,234.596376 17.8284713,237.671609 L53.5557467,257.001647 C53.5557467,257.001647 53.7749325,257.221307 53.9941182,257.221307 L59.6929474,260.29654 Z M65.8301481,218.78089 C72.4057203,218.78089 77.8853638,224.272378 77.8853638,230.862164 L77.8853638,231.960461 C77.8853638,238.769907 72.4057203,244.041735 65.8301481,244.041735 C59.0353902,244.041735 53.7749325,238.550247 53.7749325,231.960461 L53.7749325,230.862164 C53.7749325,224.272378 59.254576,218.78089 65.8301481,218.78089 Z M256.960112,295.002746 C250.302201,295.002746 244.904897,289.593775 244.904897,282.921472 C244.904897,276.249168 250.302201,270.840198 256.960112,270.840198 C263.618024,270.840198 269.015328,276.249168 269.015328,282.921472 C269.015328,289.593775 263.618024,295.002746 256.960112,295.002746 Z M339.593136,306.205382 C332.935224,306.205382 327.53792,300.796411 327.53792,294.124108 C327.53792,287.451804 332.935224,282.042834 339.593136,282.042834 C346.251048,282.042834 351.648352,287.451804 351.648352,294.124108 C351.648352,300.796411 346.251048,306.205382 339.593136,306.205382 Z M175.203832,24.1625481 C168.54592,24.1625481 163.148616,18.7535774 163.148616,12.081274 C163.148616,5.40897062 168.54592,0 175.203832,0 C181.861744,0 187.259047,5.40897062 187.259047,12.081274 C187.259047,18.7535774 181.861744,24.1625481 175.203832,24.1625481 Z M175.203832,339.59363 C168.54592,339.59363 163.148616,334.184659 163.148616,327.512356 C163.148616,320.840052 168.54592,315.431082 175.203832,315.431082 C181.861744,315.431082 187.259047,320.840052 187.259047,327.512356 C187.259047,334.184659 181.861744,339.59363 175.203832,339.59363 Z M134.435284,268.204283 C127.777373,268.204283 122.380069,262.795313 122.380069,256.123009 C122.380069,249.450706 127.777373,244.041735 134.435284,244.041735 C141.093196,244.041735 146.4905,249.450706 146.4905,256.123009 C146.4905,262.795313 141.093196,268.204283 134.435284,268.204283 Z M53.7749325,330.36793 C47.1170207,330.36793 41.7197168,324.958959 41.7197168,318.286656 C41.7197168,311.614352 47.1170207,306.205382 53.7749325,306.205382 C60.4328442,306.205382 65.8301481,311.614352 65.8301481,318.286656 C65.8301481,324.958959 60.4328442,330.36793 53.7749325,330.36793 Z M12.7871993,166.282262 C6.12928755,166.282262 0.731983666,160.873292 0.731983666,154.200988 C0.731983666,147.528685 6.12928755,142.119714 12.7871993,142.119714 C19.4451111,142.119714 24.8424149,147.528685 24.8424149,154.200988 C24.8424149,160.873292 19.4451111,166.282262 12.7871993,166.282262 Z M217.068308,377.155409 C210.410396,377.155409 205.013092,371.746438 205.013092,365.074135 C205.013092,358.401832 210.410396,352.992861 217.068308,352.992861 C223.72622,352.992861 229.123524,358.401832 229.123524,365.074135 C229.123524,371.746438 223.72622,377.155409 217.068308,377.155409 Z" id="Combined-Shape-Copy-2" fill="url(#linearGradient-1)" fill-rule="nonzero"></path>
        </g>
    </g>
</svg>