<?xml version="1.0" encoding="UTF-8"?>
<svg width="26px" height="23px" viewBox="0 0 26 23" version="1.1" xmlns="http://www.w3.org/2000/svg" xmlns:xlink="http://www.w3.org/1999/xlink">
    <!-- Generator: Sketch 50.2 (55047) - http://www.bohemiancoding.com/sketch -->
    <title>telegram</title>
    <desc>Created with Sketch.</desc>
    <defs></defs>
    <g id="Blog" stroke="none" stroke-width="1" fill="none" fill-rule="evenodd">
        <g id="FAQ" transform="translate(-848.000000, -961.000000)" fill="#FFFFFF" fill-rule="nonzero">
            <g id="Group-6" transform="translate(0.000000, 867.000000)">
                <g id="Group-34" transform="translate(480.000000, 92.000000)">
                    <g id="telegram" transform="translate(368.000000, 2.000000)">
                        <path d="M0.459246667,11.0299046 L6.45016667,13.2947901 L8.76902,20.8485344 C8.91739333,21.3323244 9.50144,21.511145 9.8891,21.1901107 L13.22854,18.4325687 C13.5785867,18.1436641 14.07718,18.1292672 14.443,18.3982443 L20.46616,22.8276756 C20.88086,23.1329962 21.4683733,22.9028206 21.5723733,22.3952405 L25.98466,0.897175573 C26.0981933,0.342717557 25.56034,-0.119828244 25.0391267,0.0843625954 L0.452226667,9.69177863 C-0.154526667,9.92880153 -0.14924,10.7989389 0.459246667,11.0299046 Z M8.39531333,12.0891336 L20.1038067,4.78470229 C20.3142333,4.65381298 20.5307267,4.94201527 20.3500267,5.11179389 L10.6871267,14.2099618 C10.34748,14.5302061 10.1283867,14.9587786 10.0663333,15.423958 L9.73717333,17.8947901 C9.69358,18.2246908 9.23606667,18.2574351 9.14619333,17.9381565 L7.88025333,13.4325267 C7.73526,12.918626 7.94655333,12.3696985 8.39531333,12.0891336 Z" id="XMLID_497_"></path>
                    </g>
                </g>
            </g>
        </g>
    </g>
</svg>