<?xml version="1.0" encoding="UTF-8"?>
<svg width="26px" height="26px" viewBox="0 0 26 26" version="1.1" xmlns="http://www.w3.org/2000/svg" xmlns:xlink="http://www.w3.org/1999/xlink">
    <!-- Generator: Sketch 50.2 (55047) - http://www.bohemiancoding.com/sketch -->
    <title>036-facebook</title>
    <desc>Created with Sketch.</desc>
    <defs></defs>
    <g id="Blog" stroke="none" stroke-width="1" fill="none" fill-rule="evenodd">
        <g id="FAQ" transform="translate(-756.000000, -959.000000)" fill="#FFFFFF" fill-rule="nonzero">
            <g id="Group-6" transform="translate(0.000000, 867.000000)">
                <g id="Group-34" transform="translate(480.000000, 92.000000)">
                    <g id="036-facebook" transform="translate(276.000000, 0.000000)">
                        <path d="M22.4846601,0 L3.50186308,0 C1.56794621,0 0.000127139364,1.5677555 0.000127139364,3.50173594 L0.000127139364,22.4846601 C0.000127139364,24.4186406 1.56788264,25.9863961 3.50186308,25.9863961 L12.864088,25.9863961 L12.880044,16.7002641 L10.467511,16.7002641 C10.1539853,16.7002641 9.89951589,16.4467482 9.89830807,16.1332225 L9.88673839,13.1399169 C9.88553056,12.8246748 10.1407628,12.568489 10.4560049,12.568489 L12.8641516,12.568489 L12.8641516,9.6761956 C12.8641516,6.31971638 14.9140831,4.49208802 17.9082787,4.49208802 L20.3652469,4.49208802 C20.679599,4.49208802 20.9345134,4.74693888 20.9345134,5.06135452 L20.9345134,7.58532518 C20.9345134,7.89961369 20.6797897,8.15440098 20.3655648,8.15459169 L18.8577555,8.15529095 C17.2294181,8.15529095 16.9141125,8.92906112 16.9141125,10.0646064 L16.9141125,12.5685526 L20.492132,12.5685526 C20.8330562,12.5685526 21.0975697,12.8662494 21.0573936,13.2048215 L20.7026112,16.1981271 C20.668665,16.4845721 20.4257653,16.7003912 20.1373496,16.7003912 L16.9300685,16.7003912 L16.9141125,25.9865232 L22.4847873,25.9865232 C24.4187042,25.9865232 25.9864597,24.4187677 25.9864597,22.4848509 L25.9864597,3.50173594 C25.9863961,1.5677555 24.4186406,0 22.4846601,0 Z" id="Shape"></path>
                    </g>
                </g>
            </g>
        </g>
    </g>
</svg>